<svg width="141" height="32" viewBox="0 0 141 32" fill="none" xmlns="http://www.w3.org/2000/svg">
<path d="M17.4199 7.94946L6.27637 11.7542V22.0286L0 24.1711V7.51978L17.4199 1.57251V7.94946Z" fill="#CC4E32"/>
<path fill-rule="evenodd" clip-rule="evenodd" d="M8.88086 13.3166L26.3003 7.36944V24.0214L8.88086 29.9686V13.3166Z" fill="#CC4E32"/>
<path d="M41.0197 18.2187L35.217 9.00267H38.5663L43.0677 16.384H41.1477L45.649 9.00267H48.9557L43.089 18.2187H41.0197ZM40.6357 24V16.6613H43.5583V24H40.6357ZM52.3088 24.2133C51.2706 24.2133 50.332 23.9787 49.4928 23.5093C48.668 23.0258 48.0066 22.3787 47.5088 21.568C47.0253 20.7431 46.7835 19.8258 46.7835 18.816C46.7835 17.8062 47.0253 16.9031 47.5088 16.1067C47.9924 15.296 48.6537 14.656 49.4928 14.1867C50.332 13.7031 51.2635 13.4613 52.2875 13.4613C53.34 13.4613 54.2786 13.7031 55.1035 14.1867C55.9426 14.656 56.604 15.296 57.0875 16.1067C57.5711 16.9031 57.8128 17.8062 57.8128 18.816C57.8128 19.8258 57.5711 20.7431 57.0875 21.568C56.604 22.3787 55.9426 23.0258 55.1035 23.5093C54.2786 23.9787 53.3471 24.2133 52.3088 24.2133ZM52.2875 21.6107C52.8137 21.6107 53.276 21.4969 53.6742 21.2693C54.0866 21.0276 54.3995 20.7004 54.6128 20.288C54.8404 19.8613 54.9542 19.3778 54.9542 18.8373C54.9542 18.2969 54.8404 17.8204 54.6128 17.408C54.3853 16.9956 54.0724 16.6756 53.6742 16.448C53.276 16.2062 52.8137 16.0853 52.2875 16.0853C51.7755 16.0853 51.3204 16.2062 50.9222 16.448C50.524 16.6756 50.2111 16.9956 49.9835 17.408C49.756 17.8204 49.6422 18.2969 49.6422 18.8373C49.6422 19.3778 49.756 19.8613 49.9835 20.288C50.2111 20.7004 50.524 21.0276 50.9222 21.2693C51.3204 21.4969 51.7755 21.6107 52.2875 21.6107ZM64.0067 24.2133C63.0965 24.2133 62.2858 24.0213 61.5747 23.6373C60.8778 23.2533 60.3302 22.72 59.932 22.0373C59.5338 21.3547 59.3347 20.5653 59.3347 19.6693V13.696H62.1507V19.6053C62.1507 20.032 62.2218 20.4018 62.364 20.7147C62.5062 21.0133 62.7196 21.2409 63.004 21.3973C63.2885 21.5538 63.6227 21.632 64.0067 21.632C64.5898 21.632 65.0449 21.4542 65.372 21.0987C65.6991 20.7431 65.8627 20.2453 65.8627 19.6053V13.696H68.6573V19.6693C68.6573 20.5796 68.4582 21.376 68.06 22.0587C67.676 22.7413 67.1285 23.2747 66.4173 23.6587C65.7205 24.0284 64.9169 24.2133 64.0067 24.2133ZM70.8828 24V13.696H73.6775V24H70.8828ZM73.6775 18.304L72.5895 17.5787C72.7175 16.3129 73.0873 15.3173 73.6988 14.592C74.3104 13.8524 75.1922 13.4827 76.3442 13.4827C76.842 13.4827 77.29 13.568 77.6882 13.7387C78.0864 13.8951 78.4491 14.1582 78.7762 14.528L77.0268 16.5333C76.8704 16.3627 76.6784 16.2347 76.4508 16.1493C76.2375 16.064 75.9886 16.0213 75.7042 16.0213C75.1068 16.0213 74.6162 16.2133 74.2322 16.5973C73.8624 16.9671 73.6775 17.536 73.6775 18.304ZM84.5982 24V9.00267H87.4995V24H84.5982ZM86.7315 24V21.4187H94.3688V24H86.7315ZM100.726 24.2133C99.6873 24.2133 98.7486 23.9787 97.9095 23.5093C97.0846 23.0258 96.4233 22.3787 95.9255 21.568C95.442 20.7431 95.2002 19.8258 95.2002 18.816C95.2002 17.8062 95.442 16.9031 95.9255 16.1067C96.4091 15.296 97.0704 14.656 97.9095 14.1867C98.7486 13.7031 99.6802 13.4613 100.704 13.4613C101.757 13.4613 102.695 13.7031 103.52 14.1867C104.359 14.656 105.021 15.296 105.504 16.1067C105.988 16.9031 106.23 17.8062 106.23 18.816C106.23 19.8258 105.988 20.7431 105.504 21.568C105.021 22.3787 104.359 23.0258 103.52 23.5093C102.695 23.9787 101.764 24.2133 100.726 24.2133ZM100.704 21.6107C101.23 21.6107 101.693 21.4969 102.091 21.2693C102.503 21.0276 102.816 20.7004 103.03 20.288C103.257 19.8613 103.371 19.3778 103.371 18.8373C103.371 18.2969 103.257 17.8204 103.03 17.408C102.802 16.9956 102.489 16.6756 102.091 16.448C101.693 16.2062 101.23 16.0853 100.704 16.0853C100.192 16.0853 99.7371 16.2062 99.3388 16.448C98.9406 16.6756 98.6277 16.9956 98.4002 17.408C98.1726 17.8204 98.0588 18.2969 98.0588 18.8373C98.0588 19.3778 98.1726 19.8613 98.4002 20.288C98.6277 20.7004 98.9406 21.0276 99.3388 21.2693C99.7371 21.4969 100.192 21.6107 100.704 21.6107ZM112.338 28.5653C111.243 28.5653 110.276 28.3662 109.437 27.968C108.598 27.584 107.929 27.0364 107.431 26.3253L109.202 24.5547C109.6 25.024 110.041 25.3796 110.525 25.6213C111.022 25.8773 111.62 26.0053 112.317 26.0053C113.184 26.0053 113.867 25.7849 114.365 25.344C114.877 24.9031 115.133 24.2916 115.133 23.5093V20.928L115.602 18.6667L115.154 16.4053V13.696H117.927V23.4667C117.927 24.4907 117.686 25.3796 117.202 26.1333C116.733 26.9013 116.078 27.4987 115.239 27.9253C114.4 28.352 113.433 28.5653 112.338 28.5653ZM112.21 23.7227C111.286 23.7227 110.454 23.5022 109.714 23.0613C108.974 22.6062 108.391 21.9876 107.965 21.2053C107.552 20.4231 107.346 19.5484 107.346 18.5813C107.346 17.6142 107.552 16.7467 107.965 15.9787C108.391 15.2107 108.974 14.6062 109.714 14.1653C110.454 13.7102 111.286 13.4827 112.21 13.4827C112.978 13.4827 113.654 13.632 114.237 13.9307C114.834 14.2293 115.303 14.6418 115.645 15.168C115.986 15.68 116.171 16.2844 116.199 16.9813V20.224C116.171 20.9067 115.979 21.5182 115.623 22.0587C115.282 22.5849 114.813 22.9973 114.215 23.296C113.632 23.5804 112.964 23.7227 112.21 23.7227ZM112.765 21.184C113.277 21.184 113.718 21.0773 114.087 20.864C114.471 20.6364 114.77 20.3307 114.983 19.9467C115.197 19.5484 115.303 19.1004 115.303 18.6027C115.303 18.0907 115.197 17.6427 114.983 17.2587C114.77 16.8747 114.471 16.576 114.087 16.3627C113.718 16.1351 113.277 16.0213 112.765 16.0213C112.253 16.0213 111.805 16.1351 111.421 16.3627C111.037 16.576 110.738 16.8818 110.525 17.28C110.311 17.664 110.205 18.1049 110.205 18.6027C110.205 19.0862 110.311 19.5271 110.525 19.9253C110.738 20.3093 111.037 20.6151 111.421 20.8427C111.805 21.0702 112.253 21.184 112.765 21.184ZM125.226 24.2133C124.187 24.2133 123.249 23.9787 122.41 23.5093C121.585 23.0258 120.923 22.3787 120.426 21.568C119.942 20.7431 119.7 19.8258 119.7 18.816C119.7 17.8062 119.942 16.9031 120.426 16.1067C120.909 15.296 121.57 14.656 122.41 14.1867C123.249 13.7031 124.18 13.4613 125.204 13.4613C126.257 13.4613 127.195 13.7031 128.02 14.1867C128.859 14.656 129.521 15.296 130.004 16.1067C130.488 16.9031 130.73 17.8062 130.73 18.816C130.73 19.8258 130.488 20.7431 130.004 21.568C129.521 22.3787 128.859 23.0258 128.02 23.5093C127.195 23.9787 126.264 24.2133 125.226 24.2133ZM125.204 21.6107C125.73 21.6107 126.193 21.4969 126.591 21.2693C127.003 21.0276 127.316 20.7004 127.53 20.288C127.757 19.8613 127.871 19.3778 127.871 18.8373C127.871 18.2969 127.757 17.8204 127.53 17.408C127.302 16.9956 126.989 16.6756 126.591 16.448C126.193 16.2062 125.73 16.0853 125.204 16.0853C124.692 16.0853 124.237 16.2062 123.839 16.448C123.441 16.6756 123.128 16.9956 122.9 17.408C122.673 17.8204 122.559 18.2969 122.559 18.8373C122.559 19.3778 122.673 19.8613 122.9 20.288C123.128 20.7004 123.441 21.0276 123.839 21.2693C124.237 21.4969 124.692 21.6107 125.204 21.6107Z" fill="white"/>
</svg>
